<svg version="1.1" id="Слой_1" xmlns="http://www.w3.org/2000/svg" xmlns:xlink="http://www.w3.org/1999/xlink" x="0px" y="0px"
	 viewBox="0 0 885 452" style="enable-background:new 0 0 885 452;" xml:space="preserve">
<defs>
	<filter id="Adobe_OpacityMaskFilter" filterUnits="userSpaceOnUse" x="0" y="0" width="885" height="572.1">

			<feColorMatrix  type="matrix" values="-1 0 0 0 1  0 -1 0 0 1  0 0 -1 0 1  0 0 0 1 0" color-interpolation-filters="sRGB" result="source"/>
	</filter>
</defs>
<mask maskUnits="userSpaceOnUse" x="0" y="0" width="885" height="572.1" id="XMLID_17_">
	<g id="XMLID_2_" style="filter:url(#Adobe_OpacityMaskFilter);">
		<rect id="XMLID_3_" x="-2.9" y="-14" style="fill:#010101;" width="920" height="466"/>
	</g>
</mask>
<g id="XMLID_4_" style="mask:url(#XMLID_17_);">
	<g id="XMLID_307_">
		<path id="XMLID_310_" style="fill:#EFE7DF;" d="M62.6,413c-0.3-0.7-1.1-1-1.6-0.8l0,0c0,0-1.7,0.8-3.8,0.9c-1,0-2.2,0-3.3-0.3
			c-1.1-0.4-2.3-1-3.4-2c-1-1-1.9-2.3-2.7-4.1c-0.7-1.5-1-3-1.1-4.5c-0.1-2.6,0.4-5.1,1.5-7.6c1.5-3.8,3.9-7.6,5.8-11.6
			c0.9-2,1.7-4.1,2.2-6.2c0.5-2.1,0.6-4.4,0.1-6.6c-0.9-4.3-3.1-7.7-5.6-10.2c-2.7-2.7-5.7-4.6-8.2-5.7c-0.5-0.2-0.9-0.4-1.2-0.7
			l-29.5-29.5c-1.3-1.3-3.2-1.8-4.9-1.8c-1.7,0-3.5,0.7-4.8,2C0.8,325.4,0,327.3,0,329c0,1.7,0.5,3.5,1.8,4.9l38.7,38.7
			c1.3,1.3,3.1,1.9,4.8,1.9c1.7,0,3.5-0.7,4.8-2c1.3-1.3,2-3,2-4.8c0-0.5-0.1-1.1-0.2-1.6c0.7,1.3,1.2,2.8,1.6,4.4
			c0.3,1.4,0.3,2.8,0.2,4.2c-0.3,2.4-1.3,4.9-2.5,7.5c-1.8,3.8-4.3,7.7-5.9,11.9c-0.8,2.1-1.3,4.3-1.4,6.5c-0.1,2.3,0.3,4.6,1.3,7
			c0.9,2.1,2,3.8,3.3,5c1.4,1.4,3,2.3,4.5,2.8c2.3,0.7,4.5,0.6,6,0.3c1.6-0.3,2.7-0.8,2.8-0.9C62.5,414.6,62.9,413.7,62.6,413z
			 M9.2,329.9c-0.2-0.2-0.5-0.4-0.5-0.8c0-0.3,0.1-0.6,0.3-0.8c0.2-0.2,0.8-0.6,1.1-0.6c0.3,0,0.9-0.2,1.1,0.1L37,353.5
			c-0.4,1-0.7,1.4,0.3,1.8l0,0l0,0c0,0,1-0.6,1.1-0.4l7.9,7.9c0.2,0.2,0,0.9,0,1.2c0,0.3-0.3,0.8-0.5,1c-0.2,0.2-0.5,0.3-0.8,0.3
			c-0.3,0-0.6-0.2-0.8-0.4L9.2,329.9z M45.5,371.6c-1,0-2-0.4-2.8-1.2L4,331.7c-0.8-0.8-1.2-1.8-1.2-2.8c0-1,0.4-2,1.2-2.8
			c0.8-0.8,1.8-1.2,2.8-1.2c0.6,0,1.3,0.2,1.9,0.5c-0.6,0.2-1.2,0.5-1.6,1c-0.8,0.8-1.1,1.8-1.1,2.8c0,1,0.5,2,1.2,2.8l35,35
			c0.8,0.8,1.8,1.3,2.8,1.2c1,0,2.1-0.4,2.8-1.2c0.5-0.5,0.8-1.1,1-1.7c0.5,0.7,0.7,1.5,0.7,2.2c0,1-0.4,2-1.2,2.8
			C47.5,371.3,46.5,371.6,45.5,371.6z"/>
		<path id="XMLID_309_" style="fill:#E9DED4;" d="M29.6,363l-18.6-18.6c-0.4-0.4-0.4-1,0-1.5l10-10c0.4-0.4,1-0.4,1.5,0L41,351.6
			c0.4,0.4,0.4,1,0,1.5l-10,10C30.6,363.4,30,363.4,29.6,363z"/>
		<path id="XMLID_308_" style="fill:#E9DED4;" d="M29.5,363.2l-18.7-18.7c-0.4-0.4-0.4-1,0-1.4l4.4-4.4c0.4-0.4,1-0.4,1.4,0
			l18.7,18.7c0.4,0.4,0.4,1,0,1.4l-4.4,4.4C30.5,363.5,29.9,363.5,29.5,363.2z"/>
	</g>
	<g id="XMLID_285_">
		<g id="XMLID_295_">
			<g id="XMLID_302_">
				<path id="XMLID_306_" style="fill:#809FAF;" d="M264.7,252.9V83.4c0-3-2.5-5.5-5.5-5.5h-78.1c-3,0-5.5,2.5-5.5,5.5v135.7
					c0,2.4-0.9,4.6-2.6,6.3l-67.6,67.6c-17.4,17.4-17.4,45.6,0,63v0c17.4,17.4,45.6,17.4,63,0l91.6-91.8
					C263,261.3,264.7,257.2,264.7,252.9z"/>
				<path id="XMLID_305_" style="fill:#87ADA9;" d="M136.9,324.7l31.5,31.5c0,0,0,0,0,0c-17.3,17.3-45.7,17.3-63,0
					c-17.3-17.3-17.3-45.7,0-63c0,0,0.1-0.1,0.1-0.1L136.9,324.7z"/>
				<path id="XMLID_304_" style="fill:#D1A6AA;" d="M264.7,114h-89.2V83c0-3,2.5-5.5,5.5-5.5h78.2c3,0,5.5,2.5,5.5,5.5V114z"/>
				<path id="XMLID_303_" style="fill:#87ADA9;" d="M259.9,264.1l-35,35.3c-10.7-10.6-16.7-25-16.7-40c0-30.9,25.4-56.4,56.4-56.4
					c0,0,0.1,0,0.1,0l-0.1,49.8C264.6,257.1,262.9,261.1,259.9,264.1z"/>
			</g>
			<g id="XMLID_296_">
				<g id="XMLID_297_">
					<path id="XMLID_44_" style="fill:#297E99;" d="M239.6,97.8c1.7,0,3.1,1.4,3.1,3.1c0,1.7-1.4,3.1-3.1,3.1s-3.1-1.4-3.1-3.1
						C236.5,99.2,237.9,97.8,239.6,97.8 M239.6,96.1c-2.6,0-4.8,2.1-4.8,4.8c0,2.6,2.1,4.8,4.8,4.8c2.6,0,4.8-2.1,4.8-4.8
						C244.4,98.3,242.2,96.1,239.6,96.1L239.6,96.1z"/>
				</g>
			</g>
		</g>
		<g id="XMLID_286_">
			<g id="XMLID_290_">
				<path id="XMLID_294_" style="fill:#80ADCC;" d="M254.2,244V74.5c0-3-2.5-5.5-5.5-5.5h-78.1c-3,0-5.5,2.5-5.5,5.5v135.7
					c0,2.4-0.9,4.6-2.6,6.3l-67.6,67.6c-17.4,17.4-17.4,45.6,0,63v0c17.4,17.4,45.6,17.4,63,0l91.6-91.8
					C252.5,252.3,254.2,248.2,254.2,244z"/>
				<path id="XMLID_293_" style="fill:#84CAA2;" d="M126.4,315.7l31.5,31.5c0,0,0,0,0,0c-17.3,17.3-45.7,17.3-63,0
					c-17.3-17.3-17.3-45.7,0-63c0,0,0.1-0.1,0.1-0.1L126.4,315.7z"/>
				<path id="XMLID_292_" style="fill:#E6AFB3;" d="M254.2,105H165v-31c0-3,2.5-5.5,5.5-5.5h78.2c3,0,5.5,2.5,5.5,5.5V105z"/>
				<path id="XMLID_291_" style="fill:#84CAA2;" d="M249.4,255.2l-35,35.3c-10.7-10.6-16.7-25-16.7-40c0-30.9,25.4-56.4,56.4-56.4
					c0,0,0.1,0,0.1,0l-0.1,49.8C254.1,248.1,252.4,252.2,249.4,255.2z"/>
			</g>
			<rect id="XMLID_289_" x="183.9" y="64.9" style="fill:#688A9E;" width="51.3" height="66.4"/>
			<rect id="XMLID_288_" x="183.9" y="64.9" style="fill:#61A7AE;" width="51.3" height="3.3"/>
			<path id="XMLID_287_" style="fill:#97C9D2;" d="M213.4,121h-7.7c-0.9,0-1.6-0.7-1.6-1.6l0,0c0-0.9,0.7-1.6,1.6-1.6h7.7
				c0.9,0,1.6,0.7,1.6,1.6l0,0C215,120.3,214.3,121,213.4,121z"/>
		</g>
	</g>
	<g id="XMLID_267_">
		<path id="XMLID_282_" style="fill:#EC9988;" d="M839.1,66.7h-76.5c-5,0-9.1,4.1-9.1,9.1v176.2c0,5,4.1,9.1,9.1,9.1h76.5
			c5,0,9.1-4.1,9.1-9.1V75.8C848.2,70.8,844.1,66.7,839.1,66.7z M818.3,86c0,1.6-1.3,2.9-2.9,2.9H789c-1.6,0-2.9-1.3-2.9-2.9v0
			c0-1.6,1.3-2.9,2.9-2.9h6.7c1.5,0,2.8-1.2,2.8-2.8c0-2,1.7-3.7,3.7-3.7s3.7,1.7,3.7,3.7c0,1.5,1.2,2.8,2.8,2.8h6.7
			C817,83.2,818.3,84.4,818.3,86L818.3,86z"/>
		<g id="XMLID_268_">
			<path id="XMLID_281_" style="fill:#FEC872;" d="M805.5,240h-6.6c-2.1,0-3.9-1.7-3.9-3.9V121.2h14.3v114.9
				C809.3,238.3,807.6,240,805.5,240z"/>
			<path id="XMLID_280_" style="fill:#FEC872;" d="M834.1,121.9h-63.9c-0.9,0-1.6-0.7-1.6-1.6v-15.7c0-0.9,0.7-1.6,1.6-1.6h63.9
				c0.9,0,1.6,0.7,1.6,1.6v15.7C835.7,121.2,835,121.9,834.1,121.9z"/>
			<rect id="XMLID_279_" x="771.2" y="107" style="fill:#BDBEC0;" width="61.9" height="6.1"/>
			<polygon id="XMLID_278_" style="fill:#BDDAE9;" points="794.5,113.1 775.7,113.1 779.3,107 798.1,107 			"/>
			<polygon id="XMLID_277_" style="fill:#BDDAE9;" points="804.7,113.1 798.5,113.1 802.1,107 808.3,107 			"/>
			<path id="XMLID_276_" style="fill:#639ECA;" d="M831.4,118.9h-58.5c-0.9,0-1.7-0.8-1.7-1.7l0,0c0-0.9,0.8-1.7,1.7-1.7h58.5
				c0.9,0,1.7,0.8,1.7,1.7l0,0C833.1,118.2,832.4,118.9,831.4,118.9z"/>
			<path id="XMLID_275_" style="fill:#FBB35C;" d="M805.5,172.9h-6.7c-0.9,0-1.6-0.7-1.6-1.6v-0.2c0-0.9,0.7-1.6,1.6-1.6h6.7
				c0.9,0,1.6,0.7,1.6,1.6v0.2C807.1,172.2,806.4,172.9,805.5,172.9z"/>
			<path id="XMLID_274_" style="fill:#FBB35C;" d="M805.5,179.8h-6.7c-0.9,0-1.6-0.7-1.6-1.6V178c0-0.9,0.7-1.6,1.6-1.6h6.7
				c0.9,0,1.6,0.7,1.6,1.6v0.2C807.1,179.1,806.4,179.8,805.5,179.8z"/>
			<path id="XMLID_273_" style="fill:#FBB35C;" d="M805.5,186.7h-6.7c-0.9,0-1.6-0.7-1.6-1.6v-0.2c0-0.9,0.7-1.6,1.6-1.6h6.7
				c0.9,0,1.6,0.7,1.6,1.6v0.2C807.1,186,806.4,186.7,805.5,186.7z"/>
			<path id="XMLID_272_" style="fill:#FBB35C;" d="M805.5,193.7h-6.7c-0.9,0-1.6-0.7-1.6-1.6v-0.2c0-0.9,0.7-1.6,1.6-1.6h6.7
				c0.9,0,1.6,0.7,1.6,1.6v0.2C807.1,193,806.4,193.7,805.5,193.7z"/>
			<path id="XMLID_271_" style="fill:#FBB35C;" d="M805.5,200.6h-6.7c-0.9,0-1.6-0.7-1.6-1.6v-0.2c0-0.9,0.7-1.6,1.6-1.6h6.7
				c0.9,0,1.6,0.7,1.6,1.6v0.2C807.1,199.9,806.4,200.6,805.5,200.6z"/>
			<path id="XMLID_270_" style="fill:#FBB35C;" d="M805.5,207.5h-6.7c-0.9,0-1.6-0.7-1.6-1.6v-0.2c0-0.9,0.7-1.6,1.6-1.6h6.7
				c0.9,0,1.6,0.7,1.6,1.6v0.2C807.1,206.8,806.4,207.5,805.5,207.5z"/>
			<rect id="XMLID_269_" x="795" y="122" style="fill:#E5B276;" width="14.3" height="5.8"/>
		</g>
	</g>
	<g id="XMLID_262_">
		<rect id="XMLID_266_" x="39.9" y="207" style="fill:#E9DED4;" width="1.7" height="71.2"/>
		<rect id="XMLID_265_" x="41.4" y="207" style="fill:#E9DED4;" width="6.8" height="71.1"/>
		<path id="XMLID_264_" style="fill:#EFE7DF;" d="M57.4,277.6V255c0-2.1,1.7-3.7,3.7-3.7l15.6,2.1c2.8,0,5-2.3,5-5v-11.5
			c0-2.8-2.3-5-5-5l-15.6,2.1c-2.1,0-3.7-1.7-3.7-3.7v-22.7c0-0.7-0.6-1.3-1.3-1.3h-9.6c-1.2,0-2.1,0.9-2.1,2.1v68.5
			c0,1.2,0.9,2.1,2.1,2.1h9.6C56.8,279,57.4,278.4,57.4,277.6z"/>
		<path id="XMLID_263_" style="fill:#EFE7DF;" d="M43.9,277.9v-70.6c0-0.8,0.6-1.5,1.5-1.5h11.1c0.8,0,1.5,0.6,1.5,1.5v70.6
			c0,0.8-0.6,1.5-1.5,1.5H45.4C44.6,279.3,43.9,278.7,43.9,277.9z"/>
	</g>
	<g id="XMLID_246_">
		<g id="XMLID_257_">
			<path id="XMLID_261_" style="fill:#E9DED4;" d="M826.3,325l12.3,5.3l-13.9,32.1c-1.5,3.4-5.4,5-8.8,3.5v0c-3.4-1.5-5-5.4-3.5-8.8
				L826.3,325z"/>
			<path id="XMLID_258_" style="fill:#E9DED4;" d="M810.6,308.5l-0.5,1.2c-3.8,8.7,0.2,18.8,8.9,22.6l13.4,5.8
				c1.3,0.6,2.9,0,3.5-1.4l6.3-14.5c3.8-8.7-0.2-18.8-8.9-22.6l0,0C824.6,295.8,814.4,299.8,810.6,308.5z M829.2,308.6l0.4,0.2
				c3.6,1.6,5.3,5.8,3.7,9.4l-0.6,1.3c-1.6,3.6-5.8,5.3-9.4,3.7l-0.4-0.2c-3.6-1.6-5.3-5.8-3.7-9.4l0.6-1.3
				C821.4,308.7,825.6,307,829.2,308.6z"/>
		</g>
		<g id="XMLID_252_">
			<path id="XMLID_256_" style="fill:#E9DED4;" d="M858.1,356.8l-5.3-12.3l-32.1,13.9c-3.4,1.5-5,5.4-3.5,8.8v0
				c1.5,3.4,5.4,5,8.8,3.5L858.1,356.8z"/>
			<path id="XMLID_253_" style="fill:#E9DED4;" d="M861,340.9l-14.5,6.3c-1.3,0.6-1.9,2.1-1.4,3.5l5.8,13.4
				c3.8,8.7,13.9,12.7,22.6,8.9l1.2-0.5c8.7-3.8,12.7-13.9,8.9-22.6v0C879.8,341.2,869.7,337.2,861,340.9z M874.4,353.5l0.2,0.4
				c1.6,3.6-0.1,7.8-3.7,9.4l-1.3,0.6c-3.6,1.6-7.8-0.1-9.4-3.7l-0.2-0.4c-1.6-3.6,0.1-7.8,3.7-9.4l1.3-0.6
				C868.6,348.2,872.8,349.9,874.4,353.5z"/>
		</g>
		<g id="XMLID_248_">
			<path id="XMLID_251_" style="fill:#EFE7DF;" d="M820,361.3l11.1,8.7l-41.2,58.5c-4.1,5.4-11.8,6.5-17.1,2.4l-0.2-0.1L820,361.3z"
				/>
			<path id="XMLID_250_" style="fill:#EFE7DF;" d="M822.2,363.7l-8.7-11.1L755,393.8c-5.4,4.1-6.5,11.8-2.4,17.1l0.1,0.1
				L822.2,363.7z"/>
			<path id="XMLID_249_" style="fill:#EFE7DF;" d="M823.8,352.5l7.2,7.2c2.8,2.8,2.8,7.4,0,10.2l0,0c-2.8,2.8-7.4,2.8-10.2,0
				l-7.2-7.2c-2.8-2.8-2.8-7.4,0-10.2v0C816.5,349.7,821,349.7,823.8,352.5z"/>
		</g>
		<circle id="XMLID_247_" style="fill:#FAF8F2;" cx="822.1" cy="362" r="3.5"/>
	</g>
	<g id="XMLID_221_" style="opacity:0.8;">
		<rect id="XMLID_245_" x="37.1" y="70.3" style="fill:#E9DED4;" width="103.5" height="113.4"/>
		<rect id="XMLID_244_" x="45.6" y="77.7" style="fill:#EFE7DF;" width="86" height="88.8"/>
		<g id="XMLID_222_">
			<path id="XMLID_243_" style="fill:#DCD1CE;" d="M82,163.4c0.2,0.1,4.2,1.2,9.9,1.2c3.1,0,6.6-0.3,10.2-1.4c3.6-1.1,7.4-3,10.8-6
				c1.4-1.2,1.5-3.3,0.3-4.7c-1.2-1.4-3.3-1.5-4.7-0.3c-2.5,2.3-5.4,3.7-8.2,4.6c-2.9,0.9-5.8,1.2-8.3,1.2c-2.4,0-4.4-0.2-5.9-0.5
				c-0.7-0.1-1.3-0.2-1.7-0.3c-0.2,0-0.3-0.1-0.4-0.1l-0.1,0l0,0l-0.4,1.3l0.4-1.3l0,0l-0.4,1.3l0.4-1.3c-1.8-0.5-3.6,0.5-4.1,2.3
				C79.2,161,80.2,162.9,82,163.4L82,163.4"/>
			<path id="XMLID_242_" style="fill:#DCD1CE;" d="M94,156.6c-1.1,0.3-4,0.9-7.6,0.8c-2.6,0-5.5-0.3-8.3-1.2
				c-2.9-0.9-5.7-2.3-8.3-4.6c-1.3-1.2-3.4-1.1-4.6,0.3c-1.2,1.3-1.1,3.4,0.3,4.6c3.4,3,7.1,4.9,10.7,6c3.6,1.1,7.2,1.4,10.2,1.4
				c4,0,7.1-0.6,8.7-0.9L94,156.6z"/>
			<path id="XMLID_241_" style="fill:#DCD1CE;" d="M70.8,154.7l-1.3-0.3L70.8,154.7L70.8,154.7l-1.3-0.3L70.8,154.7
				c0,0,0.9-3.9,3.4-8.2c1.2-2.2,2.9-4.4,4.9-6.4c2.1-2,4.5-3.6,7.6-4.7c1.7-0.6,2.6-2.5,2-4.3c-0.6-1.7-2.5-2.6-4.3-2
				c-4.1,1.5-7.4,3.8-10.1,6.3c-4,3.8-6.4,8.3-8,11.7c-1.5,3.5-2.1,6-2.1,6.2c-0.4,1.8,0.7,3.6,2.6,4
				C68.6,157.6,70.4,156.5,70.8,154.7L70.8,154.7z"/>
			<path id="XMLID_240_" style="fill:#DCD1CE;" d="M113.8,153.2c-0.1-0.2-1-4.6-4-9.9c-1.5-2.6-3.5-5.4-6.1-8
				c-2.6-2.6-6-4.9-10.1-6.3c-1.7-0.6-3.7,0.3-4.3,2c-0.6,1.7,0.3,3.7,2,4.3c3.1,1.1,5.6,2.8,7.7,4.8c3.1,3,5.2,6.7,6.5,9.6
				c0.6,1.5,1.1,2.7,1.3,3.6c0.1,0.4,0.2,0.8,0.3,1c0,0.1,0,0.2,0.1,0.2l0,0l0,0l1.8-0.4l-1.8,0.4l0,0l1.8-0.4l-1.8,0.4
				c0.4,1.8,2.2,2.9,4,2.6C113.1,156.8,114.2,155,113.8,153.2"/>
			<path id="XMLID_239_" style="fill:#E9DED4;" d="M102.9,166.4l-27.7,0l1.1-30.7c0.1-2.9,3.6-5.2,7.8-5.2l10.4,0
				c4.2,0,7.6,2.3,7.7,5.2L102.9,166.4"/>
			<path id="XMLID_238_" style="fill:#DCD1CE;" d="M97.5,131.4c0,1.4-3.8,2.6-8.5,2.6c-4.7,0-8.5-1.1-8.5-2.6s3.8-2.6,8.5-2.6
				C93.7,128.9,97.5,130,97.5,131.4"/>
			<path id="XMLID_237_" style="fill:#E9DED4;" d="M84,121.2l0.1,10.2c0,0.6,2.1,1.1,4.7,1.1s4.7-0.5,4.7-1.2l-0.1-10.2L84,121.2z"
				/>
			<path id="XMLID_236_" style="fill:#E9DED4;" d="M89.4,127.5l-2.9,0c-7.5-0.1-13.5-6.2-13.4-13.7l0.1-13.1
				c0.1-7.4,6.1-13.3,13.4-13.2l3.3,0c7.4,0.1,13.3,6.1,13.2,13.4l-0.1,13.1C103.1,121.5,96.9,127.5,89.4,127.5z"/>
			<circle id="XMLID_235_" style="fill:#DCD1CE;" cx="81.8" cy="107.3" r="1.7"/>
			<circle id="XMLID_234_" style="fill:#DCD1CE;" cx="94.5" cy="107.4" r="1.7"/>
			<path id="XMLID_233_" style="fill:#E9DED4;" d="M106.3,108.5L106.3,108.5c-0.1-2.4-2-4.2-4.4-4.2c-2.4,0.1-4.2,2-4.2,4.4
				c0.1,2.4,2,4.2,4.4,4.2C104.5,112.8,106.4,110.9,106.3,108.5z"/>
			<path id="XMLID_232_" style="fill:#E9DED4;" d="M78.3,108.5L78.3,108.5c-0.1-2.4-2-4.2-4.4-4.2c-2.4,0.1-4.2,2-4.2,4.4
				c0.1,2.4,2,4.2,4.4,4.2C76.5,112.8,78.3,110.9,78.3,108.5z"/>
			<path id="XMLID_231_" style="fill:#DCD1CE;" d="M84.8,87c0,0,3.2,2.6,6.2,1.7c2.9-0.8,4.8-2.2,5.7-3.1c1-1.1,0.5-2.2,0.5-2.2
				s-0.4,1.4-1.7,2.3c-1.3,0.9-3.9,2.2-6.1,2.2C86.5,87.9,84.8,87,84.8,87z"/>
			<path id="XMLID_230_" style="fill:#DCD1CE;" d="M99.1,87.1c0,0-4-0.8-6.3,1.3c-2.2,2-3.3,4.1-3.6,5.3c-0.4,1.5,0.6,2.2,0.6,2.2
				s-0.3-1.4,0.5-2.8c0.8-1.4,2.4-3.7,4.4-4.7C97.2,87.1,99.1,87.1,99.1,87.1z"/>
			<path id="XMLID_229_" style="fill:#8F8D72;" d="M92.6,165.1c0.3,0.3,0.6,0.6,0.7,0.9C93.2,165.7,93,165.4,92.6,165.1"/>
			<path id="XMLID_228_" style="fill:#DCD1CE;" d="M103.1,98.2c-0.4-6.3-5.6-11.3-12.1-11.4l-5.6,0c-6.5-0.1-11.8,5-12.3,11.4
				l5.1-2.4l6.7,3.8l2.3-3.7l6.5-0.1l3.1-2.4L103.1,98.2z"/>
			<path id="XMLID_227_" style="fill:#DCD1CE;" d="M73.8,95.3c0,0-1,3.2-1,6.2c0,1.1,0,3,0,3s1.8-0.2,1.8,1c0,0.3,0,0.8,0,1.2
				c0,0.5,0.7,0.7,0.9,0.2c0.3-0.5,1.4-5.4,0.8-6.5c-0.8-1.5,0.2-5,3.5-4.5c2.5,0.4,0.6-4.1,0.6-4.1S75,92.7,73.8,95.3z"/>
			<path id="XMLID_226_" style="fill:#DCD1CE;" d="M102.6,95.3c0,0,1,3.2,1,6.2c0,1.1,0,3,0,3s-1.8-0.2-1.8,1c0,0.3,0,0.8,0,1.2
				c0,0.5-0.7,0.7-0.9,0.2c-0.3-0.5-1.3-4.5-1-6.4c0.5-2.6-2.4-4.9-6-4.7c-2.6,0.1,2.1-3.9,2.1-3.9S101.4,92.7,102.6,95.3z"/>
			<path id="XMLID_225_" style="fill:#EFE7DF;" d="M82.4,116.5c0.5,2.7,2.9,4.7,5.7,4.7s5.2-2,5.7-4.7H82.4z"/>
			<path id="XMLID_224_" style="fill:#EFE7DF;" d="M91.4,118.4h-6.5c-0.4,0-0.6-0.3-0.6-0.6v-1.3h7.8v1.3
				C92.1,118.1,91.8,118.4,91.4,118.4z"/>
			<path id="XMLID_223_" style="fill:#DCD1CE;" d="M81.2,95.6c0,0,1.4,3.1,5.1,4.5c2.3,0.8,5.3,0.7,5.3,0.7l-3.1-3.1
				c0,0,2,1.5,4.6,1.6c2.4,0.1,3.7-0.3,3.7-0.3l-2.8-3.3L81.2,95.6z"/>
		</g>
	</g>
	<g id="XMLID_204_">
		<rect id="XMLID_220_" x="651.1" y="120.9" style="fill:#56ABD7;" width="82.2" height="188"/>
		<rect id="XMLID_219_" x="692" y="120.9" style="fill:#63A0CC;" width="41.3" height="188"/>
		<path id="XMLID_218_" style="fill:#65B9D1;" d="M734.1,314.2h-83.8c-1.5,0-2.8-1.2-2.8-2.8v-0.1c0-1.5,1.2-2.8,2.8-2.8h83.8
			c1.5,0,2.8,1.2,2.8,2.8v0.1C736.9,312.9,735.6,314.2,734.1,314.2z"/>
		<path id="XMLID_217_" style="fill:#54BFB6;" d="M733.3,121.1h-82.2V72c0-2.9,2.4-5.3,5.3-5.3H728c2.9,0,5.3,2.4,5.3,5.3V121.1z"/>
		<path id="XMLID_216_" style="fill:#4FB3B2;" d="M733.3,121.1h-41V72c0-3,2.4-5.4,5.4-5.4H728c2.9,0,5.3,2.4,5.3,5.3V121.1z"/>
		<path id="XMLID_215_" style="fill:#65B9D1;" d="M734.1,123.9h-83.8c-1.5,0-2.8-1.2-2.8-2.8v-0.1c0-1.5,1.2-2.8,2.8-2.8h83.8
			c1.5,0,2.8,1.2,2.8,2.8v0.1C736.9,122.7,735.6,123.9,734.1,123.9z"/>
		<path id="XMLID_214_" style="fill:#639FBC;" d="M734.2,314.2h-45.2c-1.6,0-2.8-1.3-2.8-2.8l0,0c0-1.6,1.3-2.8,2.8-2.8h45.2
			c1.6,0,2.8,1.3,2.8,2.8l0,0C737,312.9,735.7,314.2,734.2,314.2z"/>
		<path id="XMLID_213_" style="fill:#639FBC;" d="M734.2,123.9h-45.2c-1.6,0-2.8-1.3-2.8-2.8l0,0c0-1.6,1.3-2.8,2.8-2.8h45.2
			c1.6,0,2.8,1.3,2.8,2.8v0C737,122.7,735.7,123.9,734.2,123.9z"/>
		<g id="XMLID_209_">
			<path id="XMLID_212_" style="fill:#94C3E9;" d="M678.9,296.4h-15.5c-2.6,0-4.7-2.1-4.7-4.7v0c0-2.6,2.1-4.7,4.7-4.7h15.5
				c2.6,0,4.7,2.1,4.7,4.7v0C683.6,294.3,681.5,296.4,678.9,296.4z"/>
			<path id="XMLID_211_" style="fill:#94C3E9;" d="M679.2,288.2h-16.1v-2.5c0-2.5,2.1-4.6,4.6-4.6h7c2.5,0,4.6,2.1,4.6,4.6V288.2z"
				/>
			<path id="XMLID_210_" style="fill:#94C3E9;" d="M673.4,281.5h-5.9l0,0c0-2.4,1.9-4.3,4.3-4.3h3.9v2
				C675.8,280.4,674.7,281.5,673.4,281.5z"/>
		</g>
		<path id="XMLID_205_" style="fill:#94C3E9;" d="M662.6,255h7.5v-16h11.3v-14.1h-18.7V255z M662.6,146.2v13.9h4.3v16.2h14.4v-16.2
			v-8.9v-5H662.6z M663,181.7h-0.3c0,0-0.1,0-0.1,0v36.7c0,0,0.1,0,0.1,0h0.3c10.1,0,18.3-8.2,18.3-18.3
			C681.3,189.9,673.1,181.7,663,181.7z"/>
	</g>
	<g id="XMLID_189_">
		<rect id="XMLID_203_" x="333.2" y="69.5" style="fill:#E9DED4;" width="260.7" height="109.5"/>
		<rect id="XMLID_202_" x="333.2" y="178.8" style="fill:#E9DED4;" width="260.7" height="109.5"/>
		<rect id="XMLID_201_" x="451.8" y="113.8" style="fill:#E9DED4;" width="121.3" height="4.9"/>
		<rect id="XMLID_200_" x="451.8" y="124.8" style="fill:#E9DED4;" width="121.3" height="4.9"/>
		<polygon id="XMLID_199_" style="fill:#E9DED4;" points="322.8,301 322.8,183.1 461.4,210 603.5,183.1 603.5,301 		"/>
		<g id="XMLID_190_" style="opacity:0.6;">
			<g id="XMLID_196_">
				<path id="XMLID_18_" style="fill-rule:evenodd;clip-rule:evenodd;fill:#E9DED4;" d="M399.6,143.5h-24.4c-1.3,0-2.5-0.6-3.3-1.7
					l-12.7-18.1c-1.1-1.6-1.1-3.6,0-5.1l12.7-17.7c0.7-1,1.9-1.6,3.3-1.6h24.4c1.3,0,2.5,0.6,3.3,1.6l12.7,17.7
					c1.1,1.6,1.1,3.6,0,5.1l-12.7,18.1C402.1,142.9,400.9,143.5,399.6,143.5z"/>
			</g>
			<polygon id="XMLID_195_" style="fill-rule:evenodd;clip-rule:evenodd;fill:#E9DED4;" points="401.5,115.7 392.9,120.3
				387.3,112.4 381.8,120.3 373.2,115.7 375.1,127.1 399.6,127.1 			"/>
			<ellipse id="XMLID_194_" style="fill-rule:evenodd;clip-rule:evenodd;fill:#E9DED4;" cx="387.3" cy="111.6" rx="2.8" ry="2.5"/>
			<ellipse id="XMLID_193_" style="fill-rule:evenodd;clip-rule:evenodd;fill:#E9DED4;" cx="400.5" cy="114.9" rx="2.8" ry="2.5"/>
			<ellipse id="XMLID_192_" style="fill-rule:evenodd;clip-rule:evenodd;fill:#E9DED4;" cx="374.1" cy="114.9" rx="2.8" ry="2.5"/>
			<path id="XMLID_191_" style="fill-rule:evenodd;clip-rule:evenodd;fill:#E9DED4;" d="M398,133.7h-21.2c-0.9,0-1.6-0.7-1.6-1.6
				l0,0c0-0.9,0.7-1.6,1.6-1.6H398c0.9,0,1.6,0.7,1.6,1.6l0,0C399.6,133,398.9,133.7,398,133.7z"/>
		</g>
	</g>
	<g id="XMLID_165_">
		<g id="XMLID_167_">
			<g id="Прямоугольник_8_копия_20_15_">
				<g id="XMLID_61_">
					<path id="XMLID_62_" style="fill:#E9DED4;" d="M556.1,370.3c-6.9,0-12.5,5.6-12.5,12.5v91.4h19.2V370.3H556.1z"/>
				</g>
			</g>
			<g id="Прямоугольник_8_копия_20_14_">
				<g id="XMLID_57_">
					<path id="XMLID_58_" style="fill:#E9DED4;" d="M564.6,325.8c-6.9,0-12.5,5.6-12.5,12.5v91.4h19.2V325.8H564.6z"/>
				</g>
			</g>
			<g id="Эллипс_4_копия_29_7_">
				<g id="XMLID_53_">
					<path id="XMLID_54_" style="fill:#E9DED4;" d="M558.7,208.4v48.2c0,3.2-3.8,4.9-6.2,2.8c-11-9.7-33.6-29.7-40.3-36.3
						c-15.1-14.9-33.7,2.1-17.9,17.7c9.5,9.4,19.8,20.8,33.3,33.9c0,30.1,10.7,57.4,31.1,76.7c0.1,11.6,0,32.3,0,32.3l44.6,0
						c0,0,0-46.1,0-95.7C603.3,238.3,558.7,208.4,558.7,208.4z"/>
				</g>
			</g>
		</g>
		<path id="XMLID_166_" style="fill:#EFE7DF;" d="M510.3,239.7l0.8-0.8c2.7-2.7,2.7-7.2,0-9.9l-5.8-5.8c-1.8-1.8-4.7-1.8-6.5,0
			l-4.2,4.2c-1.8,1.8-1.8,4.7,0,6.5l5.8,5.8C503.2,242.5,507.6,242.5,510.3,239.7z"/>
	</g>
	<g id="XMLID_149_">
		<polygon id="XMLID_164_" style="fill:#548C8A;" points="577.2,178 311.9,178 311.9,103.1 442.9,40.9 577.2,103.1 		"/>
		<rect id="XMLID_163_" x="321.7" style="fill:#E6EAF0;" width="246.8" height="151.9"/>
		<polygon id="XMLID_162_" style="fill:#CFDBD8;" points="321.7,238.7 321.7,119.2 442.9,145.8 568.4,119.2 568.4,238.7 		"/>
		<rect id="XMLID_161_" x="433.9" y="48.3" style="fill:#9EB9D1;" width="114.8" height="5.3"/>
		<rect id="XMLID_160_" x="433.9" y="60.4" style="fill:#9EB9D1;" width="114.8" height="5.3"/>
		<polygon id="XMLID_159_" style="fill:#4ABD9B;" points="311.8,252.5 311.8,123.9 443,153.3 577.5,123.9 577.5,252.5 		"/>
		<g id="XMLID_150_" style="opacity:0.6;">
			<g id="XMLID_156_">
				<path id="XMLID_20_" style="fill-rule:evenodd;clip-rule:evenodd;fill:#FEC010;" d="M384.5,80.8h-23.1c-1.2,0-2.4-0.7-3.1-1.8
					l-12-19.7c-1.1-1.7-1-3.9,0-5.6l12-19.3c0.7-1.1,1.8-1.8,3.1-1.8h23.1c1.2,0,2.4,0.7,3.1,1.8l12,19.3c1.1,1.7,1.1,3.9,0,5.6
					l-12,19.7C386.9,80.1,385.7,80.8,384.5,80.8z"/>
			</g>
			<polygon id="XMLID_155_" style="fill-rule:evenodd;clip-rule:evenodd;fill:#FFFFFF;" points="386.3,50.4 378.1,55.4 372.9,46.8
				367.6,55.4 359.5,50.4 361.3,62.9 384.5,62.9 			"/>
			<circle id="XMLID_154_" style="fill-rule:evenodd;clip-rule:evenodd;fill:#FFFFFF;" cx="372.9" cy="45.9" r="2.7"/>
			<circle id="XMLID_153_" style="fill-rule:evenodd;clip-rule:evenodd;fill:#FFFFFF;" cx="385.4" cy="49.5" r="2.7"/>
			<circle id="XMLID_152_" style="fill-rule:evenodd;clip-rule:evenodd;fill:#FFFFFF;" cx="360.4" cy="49.5" r="2.7"/>
			<path id="XMLID_151_" style="fill-rule:evenodd;clip-rule:evenodd;fill:#FFFFFF;" d="M382.7,70H363c-1,0-1.8-0.8-1.8-1.8v0
				c0-1,0.8-1.8,1.8-1.8h19.7c1,0,1.8,0.8,1.8,1.8v0C384.5,69.3,383.7,70,382.7,70z"/>
		</g>
	</g>
	<g id="XMLID_102_">
		<path id="XMLID_148_" style="fill:#21A873;" d="M542.6,218.7c-0.3,9.3,2.5,24.3,6.2,34.3H618c0-11,0-12,0-21
			c0-49.6-40.7-81.2-40.7-81.2l-3.2,49.8c0,3.2-4,4.9-6.4,2.8c-11-9.7-33.7-29.7-40.4-36.3c-15.1-14.9-33.7,2.1-18,17.7
			C518.8,194.1,529.1,205.5,542.6,218.7z"/>
		<g id="XMLID_105_">
			<g id="Прямоугольник_8_копия_20_4_">
				<g id="XMLID_52_">
					<rect id="XMLID_55_" x="571.5" y="277.3" style="fill:#E49F76;" width="19.2" height="99.2"/>
				</g>
			</g>
			<g id="Эллипс_4_копия_29_4_">
				<g id="XMLID_56_">
					<path id="XMLID_64_" style="fill:#EBBA88;" d="M577.7,149.4v48.2c0,3.2-3.8,4.9-6.2,2.8c-11-9.7-33.6-29.7-40.3-36.3
						c-15.1-14.9-33.7,2.1-17.9,17.7c9.5,9.4,19.8,20.8,33.3,33.9c0,30.1,10.7,57.4,31.1,76.7c0.1,11.6,0,84.1,0,84.1l44.6,0
						c0,0,0-97.9,0-147.6C622.3,179.3,577.7,149.4,577.7,149.4z"/>
				</g>
			</g>
			<g id="Прямоугольник_3_копия_33_5_">
				<g id="XMLID_65_">
					<path id="XMLID_66_" style="fill:#DE5C59;" d="M620.7,324h-55.5c-3.7,0-6.6,3-6.6,6.6v32.1h68.8v-32.1
						C627.4,326.9,624.4,324,620.7,324z"/>
				</g>
			</g>
			<g id="Прямоугольник_3_копия_33_3_">
				<g id="XMLID_69_">
					<path id="XMLID_70_" style="fill:#DE5C59;" d="M619.1,354.6h-52.2c-7.9,0-14.4,6.4-14.4,14.4V452h80.9v-83.1
						C633.4,361,627,354.6,619.1,354.6z"/>
				</g>
			</g>
			<g id="Прямоугольник_3_копия_33_17_">
				<g id="XMLID_71_">
					<path id="XMLID_75_" style="fill:#CF555A;" d="M621,324h-15.5c-3.7,0-6.6,3-6.6,6.6v32.1h28.8v-32.1
						C627.6,326.9,624.6,324,621,324z"/>
				</g>
			</g>
			<g id="Прямоугольник_3_копия_33_12_">
				<g id="XMLID_76_">
					<path id="XMLID_77_" style="fill:#CF555A;" d="M619.3,354.6h-12.2c-7.9,0-14.4,6.4-14.4,14.4V452h40.9v-83.1
						C633.7,361,627.3,354.6,619.3,354.6z"/>
				</g>
			</g>
		</g>
		<path id="XMLID_104_" style="fill:#DE5C59;" d="M529.3,180.7l0.8-0.8c2.7-2.7,2.7-7.2,0-9.9l-5.8-5.8c-1.8-1.8-4.7-1.8-6.5,0
			l-4.2,4.2c-1.8,1.8-1.8,4.7,0,6.5l5.8,5.8C522.2,183.5,526.6,183.5,529.3,180.7z"/>
		<circle id="XMLID_103_" style="fill:#FEC010;" cx="573.1" cy="338.5" r="6"/>
	</g>
	<g id="XMLID_90_">
		<g id="XMLID_95_">
			<path id="XMLID_99_" style="fill:#EFE7DF;" d="M383.5,374.6l4.5,29l29.3,4.7l56.5-56.5L440,318.1L383.5,374.6z M401.6,390.2
				c1.2,1.2,1.2,3.1,0,4.2s-3.1,1.2-4.2,0s-1.2-3.1,0-4.2S400.5,389,401.6,390.2z"/>
			<path id="XMLID_96_" style="fill:#E9DED4;" d="M394.1,386.8c-2.9,2.9-2.9,7.6,0,10.5c2.9,2.9,7.6,2.9,10.5,0
				c2.9-2.9,2.9-7.6,0-10.5C401.8,383.9,397,383.9,394.1,386.8z M401.6,390.2c1.2,1.2,1.2,3.1,0,4.2s-3.1,1.2-4.2,0s-1.2-3.1,0-4.2
				S400.5,389,401.6,390.2z"/>
		</g>
		<path id="XMLID_94_" style="fill:none;stroke:#E9DED4;stroke-width:1.3276;stroke-linecap:round;stroke-miterlimit:10;" d="
			M399.6,394.7c0,0-26.2-6.3-26.9,16.6c-0.7,23.3,35.5,26.6,47.1,6.3c9.3-16.3,29.2-19.2,34.8,3.3c4.5,17.8,30.2,9,18.3-9.6
			c-11.9-18.6-1-37.2-1-37.2"/>
		<g id="XMLID_91_">
			<path id="XMLID_93_" style="fill:#E9DED4;" d="M413.9,365.9c-0.5,0.1-0.9-0.6-0.4-1c1.6-1.3,4-3.6,4.7-6.2
				c1.3-4.2,3.7-8.1,7.8-7.4c2.4,0.4,2.5,1,4.5-0.6c1.9-1.5,2.2-4.2,5.9-3.6c3.2,0.6,8.3,3.6,11.5,3.6c0.2,0,0.4,0,0.7,0
				c0.6-0.1,0.8,0.7,0.4,1c-3.3,2.2-9.8,6.3-17.2,9.3C424.7,363.9,417.4,365.3,413.9,365.9z"/>
			<path id="XMLID_92_" style="fill:#E9DED4;" d="M420.2,369.4c-0.4-1.7,2-3.7,5-4.2c2-0.3,7.4-1.3,10.7-3.5
				c2.9-1.9,8.1-5.2,9.6-3.9c2.1,1.9-1.5,7.8-10.6,11.7C427.7,372.6,420.7,371.7,420.2,369.4z"/>
		</g>
	</g>
	<g id="XMLID_5_">
		<g id="Прямоугольник_8_копия_20_8_">
			<g id="XMLID_85_">

					<rect id="XMLID_89_" x="201.7" y="437.1" transform="matrix(0.1464 -0.9892 0.9892 0.1464 -241.877 649.4105)" style="fill:#EBBA88;" width="107.4" height="55.6"/>
			</g>
		</g>
		<g id="Прямоугольник_3_копия_33_9_">
			<g id="XMLID_78_">
				<path id="XMLID_82_" style="fill:#DE5C59;" d="M279.8,506.8l-59.4-8.8c-3.9-0.6-7.6,2.1-8.2,6.1l-5.1,34.3l73.6,10.9l5.1-34.3
					C286.5,511.1,283.8,507.4,279.8,506.8z"/>
			</g>
		</g>
		<g id="Прямоугольник_3_копия_33_7_">
			<g id="XMLID_83_">
				<path id="XMLID_84_" style="fill:#DE5C59;" d="M273.2,539.3l-55.9-8.3c-8.5-1.3-16.4,4.6-17.6,13.1l-2.2,15.1l86.6,12.8
					l2.2-15.1C287.6,548.5,281.7,540.6,273.2,539.3z"/>
			</g>
		</g>
		<circle id="XMLID_68_" style="fill:#FEC010;" cx="225.3" cy="514.7" r="6.5"/>
		<path id="XMLID_67_" style="fill:#EBBA88;" d="M333.5,384.8c-2.4-1.2-6.8-2.3-11.4,4.1c-3.7,5.2-11.9,18.6-16.3,26
			c-0.5,0.8-1.8,0.4-1.6-0.6l13.1-75.6c1.1-6.1-1.3-11.3-6.6-12.3c-5.3-1-9.5,3-10.6,9.1l-13.2,66.7c-0.1,0.7-0.9,1.2-1.6,1.1l0,0
			c-0.8-0.1-1.3-0.8-1.2-1.6l11-81.8c0.8-5.6-1.6-10.1-7-10.9c-5.4-0.8-8.9,2.2-10,8.2l-13.1,81.5c-0.1,0.9-0.9,1.4-1.8,1.3l0,0
			c-0.8-0.1-1.4-0.9-1.3-1.7l7.1-67.4c0.7-6.6-2.4-11.3-7.8-11.9s-9,3.4-10.1,10l-8.4,66.6c-0.1,0.7-0.7,1.3-1.5,1.3c0,0,0,0,0,0
			c-0.8,0-1.5-0.7-1.4-1.6l3.1-47.1c0.3-7.3-2.4-11.1-7.8-11.4l0,0c-5.4-0.3-8.3,3.9-9.2,10.5l-6.9,70.6c-0.2,1.9-0.5,4.4-0.7,7.2
			l-0.2,2.4c0,0.5,0,0.9,0,1.4c-0.3,4.4-0.3,9.2,0,13.5c1.6,21.9,10.2,33.9,30.9,37l15.5,2c23.1,1.8,33.5-15.5,41.7-26.2
			c5.7-7.5,13.1-20.5,16.5-27.7c3.8-8.1,12.6-30.7,12.6-30.7C337.2,391.7,337.3,386.8,333.5,384.8z"/>
		<path id="XMLID_63_" style="fill:#DE5C59;" d="M327,403.6l-1-0.4c-1.8-0.8-2.7-2.9-1.9-4.7l3.4-7.9c0.5-1.2,1.9-1.8,3.1-1.2
			l3.2,1.4c1.2,0.5,1.8,1.9,1.2,3.1l-3.4,7.9C330.9,403.6,328.8,404.4,327,403.6z"/>
		<path id="XMLID_60_" style="fill:#DE5C59;" d="M306.3,350.2L306.3,350.2c-3-0.6-5-3.5-4.4-6.5l2-10.6c0.4-2,2.3-3.3,4.3-2.9
			l3.7,0.7c2,0.4,3.3,2.3,2.9,4.3l-2,10.6C312.2,348.8,309.3,350.8,306.3,350.2z"/>
		<path id="XMLID_59_" style="fill:#DE5C59;" d="M284.4,333.2L284.4,333.2c-3.3-0.5-5.5-3.5-5.1-6.8l1.5-9.9
			c0.3-2.2,2.3-3.7,4.5-3.3l4,0.6c2.2,0.3,3.7,2.3,3.3,4.5l-1.5,9.9C290.7,331.4,287.7,333.7,284.4,333.2z"/>
		<path id="XMLID_51_" style="fill:#DE5C59;" d="M258.6,343.6l-0.5-0.1c-2.9-0.3-4.9-2.9-4.6-5.7l1.2-11.3c0.2-1.9,1.9-3.3,3.8-3.1
			l4,0.4c1.9,0.2,3.3,1.9,3.1,3.8l-1.2,11.3C264,341.8,261.4,343.9,258.6,343.6z"/>
		<path id="XMLID_6_" style="fill:#DE5C59;" d="M233.3,358.5L233.3,358.5c-3-0.2-5.2-2.8-5-5.7l0.6-8.3c0.1-2,1.8-3.4,3.8-3.3
			l3.6,0.3c2,0.1,3.4,1.8,3.3,3.8l-0.6,8.3C238.8,356.5,236.2,358.7,233.3,358.5z"/>
	</g>
</g>

</svg>
