<svg version="1.1" id="Слой_1" xmlns="http://www.w3.org/2000/svg" xmlns:xlink="http://www.w3.org/1999/xlink" x="0px" y="0px"
	 viewBox="0 0 621 342" style="enable-background:new 0 0 621 342;" xml:space="preserve">
<polygon id="XMLID_128_" style="fill:#208BC5;" points="450,155.5 169.7,155.5 169.7,90.2 308.4,35.9 450,90.2 "/>
<rect id="XMLID_127_" x="202.4" y="0.3" style="fill:#E6EAF0;" width="215.2" height="132.5"/>
<polygon id="XMLID_126_" style="fill:#CFDBD8;" points="202.4,208.4 202.4,106.7 308.1,127.4 417.7,106.7 417.7,208.4 "/>
<g id="XMLID_121_">
	<path id="XMLID_125_" style="fill:#269B55;" d="M333.7,87.6c0,0,8.1,19.4,1,36c-7.1,16.6-26.6,24.2-26.6,24.2s-8.1-19.4-1-36
		C314.2,95.2,333.7,87.6,333.7,87.6z"/>
	<path id="XMLID_124_" style="fill:#63B259;" d="M308.3,147.7c1.8-0.7,19.8-8.3,26.5-24.1s-0.3-34.1-1-35.8L308.3,147.7z"/>
	<path id="XMLID_123_" style="fill:#269B55;" d="M284.1,87.2c0,0,19.4,8,26.1,24.7s-1.7,35.9-1.7,35.9s-19.4-8-26.1-24.7
		C275.6,106.4,284.1,87.2,284.1,87.2z"/>
	<path id="XMLID_122_" style="fill:#63B259;" d="M308.6,147.7c0.7-1.7,8.1-19.9,1.7-35.8s-24.3-23.9-26-24.6L308.6,147.7z"/>
</g>
<rect id="XMLID_120_" x="300.4" y="42.4" style="fill:#9EB9D1;" width="100.2" height="4.6"/>
<rect id="XMLID_119_" x="300.4" y="52.9" style="fill:#9EB9D1;" width="100.2" height="4.6"/>
<polygon id="XMLID_118_" style="fill:#36ADD2;" points="169.6,220.5 169.6,108.3 308.3,134 450,108.3 450,220.5 "/>
<g id="XMLID_109_" style="opacity:0.6;">
	<g id="XMLID_115_">
		<path id="XMLID_29_" style="fill-rule:evenodd;clip-rule:evenodd;fill:#FEC010;" d="M257.2,70.7h-20.1c-1.1,0-2.1-0.6-2.7-1.6
			L223.9,52c-0.9-1.5-0.9-3.4,0-4.9l10.5-16.9c0.6-1,1.6-1.5,2.7-1.5h20.2c1.1,0,2.1,0.6,2.7,1.5l10.5,16.9c0.9,1.5,0.9,3.4,0,4.9
			l-10.5,17.2C259.3,70.1,258.3,70.7,257.2,70.7z"/>
	</g>
	<polygon id="XMLID_114_" style="fill-rule:evenodd;clip-rule:evenodd;fill:#FFFFFF;" points="258.8,44.2 251.7,48.6 247.1,41.1
		242.5,48.6 235.4,44.2 237,55.1 257.2,55.1 	"/>
	<circle id="XMLID_113_" style="fill-rule:evenodd;clip-rule:evenodd;fill:#FFFFFF;" cx="247.1" cy="40.3" r="2.3"/>
	<circle id="XMLID_112_" style="fill-rule:evenodd;clip-rule:evenodd;fill:#FFFFFF;" cx="258" cy="43.5" r="2.3"/>
	<circle id="XMLID_111_" style="fill-rule:evenodd;clip-rule:evenodd;fill:#FFFFFF;" cx="236.2" cy="43.5" r="2.3"/>
	<path id="XMLID_110_" style="fill-rule:evenodd;clip-rule:evenodd;fill:#FFFFFF;" d="M255.7,61.4h-17.2c-0.8,0-1.5-0.7-1.5-1.5v0
		c0-0.8,0.7-1.5,1.5-1.5h17.2c0.8,0,1.5,0.7,1.5,1.5v0C257.2,60.7,256.5,61.4,255.7,61.4z"/>
</g>
<g id="XMLID_98_">
	<g id="XMLID_64_">
		<g id="XMLID_66_">
			<circle id="XMLID_68_" style="fill:#208BC5;" cx="352.4" cy="159.6" r="5.4"/>
			<circle id="XMLID_67_" style="fill:#208BC5;" cx="264.4" cy="159.6" r="5.4"/>
		</g>
		<path id="XMLID_65_" style="fill:#208BC5;" d="M295.3,181.8c-0.9,0-1.6,0.9-1.3,1.8c2,6,7.7,10.4,14.4,10.4s12.4-4.4,14.4-10.4
			c0.3-0.9-0.4-1.8-1.3-1.8H295.3z"/>
	</g>
</g>
<g id="XMLID_96_">
	<path id="XMLID_97_" style="fill:#F37669;" d="M169.7,128.6H62.6c-1.2,0-2.4-0.2-3.4-0.7c-1.6-0.7-2.9-1.8-3.8-3.2
		c-0.9-1.4-1.5-3-1.5-4.9c0-1.2,0.2-2.4,0.7-3.4c0.7-1.6,1.8-2.9,3.2-3.8c1.4-0.9,3-1.5,4.9-1.5l65.1,0c3.2,0,6.3-0.7,9.1-1.8
		c4.2-1.8,7.7-4.7,10.3-8.4c2.5-3.7,4-8.2,4-13.1c0-3.2-0.7-6.3-1.8-9.1c-1.8-4.2-4.7-7.7-8.4-10.3c-3.7-2.5-8.2-4-13.1-4H0.7
		l4.5,7.3l-4.5,7.4l127,0c1.2,0,2.4,0.2,3.4,0.7c1.6,0.7,2.9,1.8,3.8,3.2c0.9,1.4,1.5,3,1.5,4.9c0,1.2-0.2,2.3-0.7,3.4
		c-0.7,1.6-1.8,2.9-3.2,3.8c-1.4,0.9-3,1.5-4.9,1.5l-65.1,0c-3.2,0-6.3,0.7-9.1,1.8c-4.2,1.8-7.7,4.7-10.3,8.4
		c-2.5,3.7-4,8.2-4,13.1c0,3.2,0.7,6.3,1.8,9.1c1.8,4.2,4.7,7.7,8.4,10.3c3.7,2.5,8.2,4,13.1,4h107.2V128.6L169.7,128.6z"/>
</g>
<path id="XMLID_95_" style="fill:#F37669;" d="M510.2,96c-3.3,0-6.4,0.8-9.2,2c-4.3,1.8-7.9,4.9-10.4,8.6c-2.6,3.8-4.1,8.4-4.1,13.3
	c0,3.3,0.7,6.4,1.9,9.3c1.8,4.3,4.3,7.9,8,10.4c3.8,2.5,9.6,4,12.6,4.1v0l4.8,0.3h0.1c1.2,0,2.4,0.1,3.4,0.6
	c1.6,0.7,2.9,1.7,3.9,3.1c1,1.4,1.5,3.1,1.5,4.9c0,1.2-0.2,2.4-0.7,3.4c-0.7,1.6-1.8,2.7-3.2,3.7c-1.4,1-3.1,1.3-4.9,1.3H450v15
	h63.9c3.3,0,6.4-0.5,9.2-1.7c4.3-1.8,7.9-4.7,10.4-8.5c2.6-3.8,4.1-8.3,4.1-13.2c0-3.3-0.7-6.4-1.9-9.2c-1.8-4.3-4.8-7.9-8.6-10.4
	c-3.8-2.5-8.2-4-13.2-4v0l-3.7,0.1h-0.1c-1.2,0-2.4-0.3-3.4-0.8c-1.6-0.7-2.9-1.8-3.9-3.3c-1-1.4-1.5-3.1-1.5-5
	c0-1.2,0.2-2.4,0.7-3.5c0.7-1.6,1.8-3,3.2-4c1.4-1,3.1-1.6,4.9-1.6H595l-6.3-7.3L595,96H510.2z"/>
<defs>
	<filter id="Adobe_OpacityMaskFilter" filterUnits="userSpaceOnUse" x="3.2" y="215.6" width="618" height="263.1">

			<feColorMatrix  type="matrix" values="-1 0 0 0 1  0 -1 0 0 1  0 0 -1 0 1  0 0 0 1 0" color-interpolation-filters="sRGB" result="source"/>
	</filter>
</defs>
<mask maskUnits="userSpaceOnUse" x="3.2" y="215.6" width="618" height="263.1" id="XMLID_39_">
	<g id="XMLID_2_" style="filter:url(#Adobe_OpacityMaskFilter);">
		<rect id="XMLID_3_" x="-45" y="185" style="fill:#010101;" width="692" height="156.5"/>
	</g>
</mask>
<g id="XMLID_4_" style="mask:url(#XMLID_39_);">
	<g id="XMLID_61_">
		<g id="Прямоугольник_8_копия_20_6_">
			<g id="XMLID_53_">

					<rect id="XMLID_54_" x="535.6" y="317.8" transform="matrix(0.9892 -0.1464 0.1464 0.9892 -48.317 86.481)" style="fill:#EBBA88;" width="55.6" height="107.4"/>
			</g>
		</g>
		<g id="Прямоугольник_3_копия_33_15_">
			<g id="XMLID_31_">
				<path id="XMLID_32_" style="fill:#DE5C59;" d="M606.4,410.7c-0.6-3.9-4.2-6.6-8.2-6.1l-59.4,8.8c-3.9,0.6-6.6,4.2-6.1,8.2
					l5.1,34.3l73.6-10.9L606.4,410.7z"/>
			</g>
		</g>
		<g id="Прямоугольник_3_копия_33_13_">
			<g id="XMLID_27_">
				<path id="XMLID_28_" style="fill:#DE5C59;" d="M619,450.8c-1.3-8.5-9.2-14.4-17.6-13.1l-55.9,8.3c-8.5,1.3-14.4,9.2-13.1,17.6
					l2.2,15.1l86.6-12.8L619,450.8z"/>
			</g>
		</g>
		<circle id="XMLID_73_" style="fill:#FEC010;" cx="593.4" cy="421.3" r="6.5"/>
		<path id="XMLID_72_" style="fill:#EBBA88;" d="M485.3,291.5c2.4-1.2,6.8-2.3,11.4,4.1c3.7,5.2,11.9,18.6,16.3,26
			c0.5,0.8,1.8,0.4,1.6-0.6l-13.1-75.6c-1.1-6.1,1.3-11.3,6.6-12.3c5.3-1,9.5,3,10.6,9.1l13.2,66.7c0.1,0.7,0.9,1.2,1.6,1.1l0,0
			c0.8-0.1,1.3-0.8,1.2-1.6l-11-81.8c-0.8-5.6,1.6-10.1,7-10.9c5.4-0.8,8.9,2.2,10,8.2l13.1,81.5c0.1,0.9,0.9,1.4,1.8,1.3l0,0
			c0.8-0.1,1.4-0.9,1.3-1.7l-7.1-67.4c-0.7-6.6,2.4-11.3,7.8-11.9c5.4-0.5,9,3.4,10.1,10l8.4,66.6c0.1,0.7,0.7,1.3,1.5,1.3
			c0,0,0,0,0,0c0.8,0,1.5-0.7,1.4-1.6l-3.1-47.1c-0.3-7.3,2.4-11.1,7.8-11.4l0,0c5.4-0.3,8.3,3.9,9.2,10.5l6.9,70.6
			c0.2,1.9,0.5,4.4,0.7,7.2l0.2,2.4c0,0.5,0,0.9,0,1.4c0.3,4.4,0.3,9.2,0,13.5c-1.6,21.9-10.2,33.9-30.9,37l-15.5,2
			c-23.1,1.8-33.5-15.5-41.7-26.2c-5.7-7.5-13.1-20.5-16.5-27.7c-3.8-8.1-12.6-30.7-12.6-30.7C481.6,298.3,481.4,293.4,485.3,291.5z
			"/>
		<path id="XMLID_71_" style="fill:#F2CC9F;" d="M491.7,310.3l1-0.4c1.8-0.8,2.7-2.9,1.9-4.7l-3.4-7.9c-0.5-1.2-1.9-1.8-3.1-1.2
			l-3.2,1.4c-1.2,0.5-1.8,1.9-1.2,3.1l3.4,7.9C487.8,310.2,489.9,311,491.7,310.3z"/>
		<path id="XMLID_70_" style="fill:#F2CC9F;" d="M512.5,256.8L512.5,256.8c3-0.6,5-3.5,4.4-6.5l-2-10.6c-0.4-2-2.3-3.3-4.3-2.9
			l-3.7,0.7c-2,0.4-3.3,2.3-2.9,4.3l2,10.6C506.5,255.4,509.4,257.4,512.5,256.8z"/>
		<path id="XMLID_69_" style="fill:#F2CC9F;" d="M534.3,239.8L534.3,239.8c3.3-0.5,5.5-3.5,5.1-6.8l-1.5-9.9
			c-0.3-2.2-2.3-3.7-4.5-3.3l-4,0.6c-2.2,0.3-3.7,2.3-3.3,4.5l1.5,9.9C528,238.1,531,240.3,534.3,239.8z"/>
		<path id="XMLID_63_" style="fill:#F2CC9F;" d="M560.2,250.2l0.5-0.1c2.9-0.3,4.9-2.9,4.6-5.7l-1.2-11.3c-0.2-1.9-1.9-3.3-3.8-3.1
			l-4,0.4c-1.9,0.2-3.3,1.9-3.1,3.8l1.2,11.3C554.8,248.5,557.3,250.5,560.2,250.2z"/>
		<path id="XMLID_62_" style="fill:#F2CC9F;" d="M585.5,265.1L585.5,265.1c3-0.2,5.2-2.8,5-5.7l-0.6-8.3c-0.1-2-1.8-3.4-3.8-3.3
			l-3.6,0.3c-2,0.1-3.4,1.8-3.3,3.8l0.6,8.3C579.9,263.1,582.5,265.3,585.5,265.1z"/>
	</g>
	<g id="XMLID_5_">
		<g id="Прямоугольник_8_копия_20_4_">
			<g id="XMLID_55_">

					<rect id="XMLID_60_" x="7.4" y="343.7" transform="matrix(0.1464 -0.9892 0.9892 0.1464 -315.3355 377.562)" style="fill:#EBBA88;" width="107.4" height="55.6"/>
			</g>
		</g>
		<g id="Прямоугольник_3_копия_33_11_">
			<g id="XMLID_33_">
				<path id="XMLID_34_" style="fill:#DE5C59;" d="M85.6,413.5l-59.4-8.8c-3.9-0.6-7.6,2.1-8.2,6.1L13,445.1L86.6,456l5.1-34.3
					C92.2,417.7,89.5,414.1,85.6,413.5z"/>
			</g>
		</g>
		<g id="Прямоугольник_3_копия_33_8_">
			<g id="XMLID_37_">
				<path id="XMLID_38_" style="fill:#DE5C59;" d="M79,445.9l-55.9-8.3c-8.5-1.3-16.4,4.6-17.6,13.1l-2.2,15.1l86.6,12.8l2.2-15.1
					C93.3,455.1,87.5,447.2,79,445.9z"/>
			</g>
		</g>
		<circle id="XMLID_26_" style="fill:#FEC010;" cx="31.1" cy="421.3" r="6.5"/>
		<path id="XMLID_24_" style="fill:#EBBA88;" d="M139.2,291.5c-2.4-1.2-6.8-2.3-11.4,4.1c-3.7,5.2-11.9,18.6-16.3,26
			c-0.5,0.8-1.8,0.4-1.6-0.6l13.1-75.6c1.1-6.1-1.3-11.3-6.6-12.3c-5.3-1-9.5,3-10.6,9.1l-13.2,66.7c-0.1,0.7-0.9,1.2-1.6,1.1l0,0
			c-0.8-0.1-1.3-0.8-1.2-1.6l11-81.8c0.8-5.6-1.6-10.1-7-10.9c-5.4-0.8-8.9,2.2-10,8.2l-13.1,81.5c-0.1,0.9-0.9,1.4-1.8,1.3l0,0
			c-0.8-0.1-1.4-0.9-1.3-1.7l7.1-67.4c0.7-6.6-2.4-11.3-7.8-11.9c-5.4-0.5-9,3.4-10.1,10l-8.4,66.6c-0.1,0.7-0.7,1.3-1.5,1.3
			c0,0,0,0,0,0c-0.8,0-1.5-0.7-1.4-1.6l3.1-47.1c0.3-7.3-2.4-11.1-7.8-11.4l0,0c-5.4-0.3-8.3,3.9-9.2,10.5l-6.9,70.6
			c-0.2,1.9-0.5,4.4-0.7,7.2l-0.2,2.4c0,0.5,0,0.9,0,1.4c-0.3,4.4-0.3,9.2,0,13.5c1.6,21.9,10.2,33.9,30.9,37l15.5,2
			c23.1,1.8,33.5-15.5,41.7-26.2c5.7-7.5,13.1-20.5,16.5-27.7c3.8-8.1,12.6-30.7,12.6-30.7C142.9,298.3,143.1,293.4,139.2,291.5z"/>
		<path id="XMLID_23_" style="fill:#F2CC9F;" d="M132.8,310.3l-1-0.4c-1.8-0.8-2.7-2.9-1.9-4.7l3.4-7.9c0.5-1.2,1.9-1.8,3.1-1.2
			l3.2,1.4c1.2,0.5,1.8,1.9,1.2,3.1l-3.4,7.9C136.7,310.2,134.6,311,132.8,310.3z"/>
		<path id="XMLID_22_" style="fill:#F2CC9F;" d="M112,256.8L112,256.8c-3-0.6-5-3.5-4.4-6.5l2-10.6c0.4-2,2.3-3.3,4.3-2.9l3.7,0.7
			c2,0.4,3.3,2.3,2.9,4.3l-2,10.6C118,255.4,115.1,257.4,112,256.8z"/>
		<path id="XMLID_20_" style="fill:#F2CC9F;" d="M90.2,239.8L90.2,239.8c-3.3-0.5-5.5-3.5-5.1-6.8l1.5-9.9c0.3-2.2,2.3-3.7,4.5-3.3
			l4,0.6c2.2,0.3,3.7,2.3,3.3,4.5l-1.5,9.9C96.5,238.1,93.4,240.3,90.2,239.8z"/>
		<path id="XMLID_8_" style="fill:#F2CC9F;" d="M64.3,250.2l-0.5-0.1c-2.9-0.3-4.9-2.9-4.6-5.7l1.2-11.3c0.2-1.9,1.9-3.3,3.8-3.1
			l4,0.4c1.9,0.2,3.3,1.9,3.1,3.8L70,245.6C69.7,248.5,67.2,250.5,64.3,250.2z"/>
		<path id="XMLID_6_" style="fill:#F2CC9F;" d="M39,265.1L39,265.1c-3-0.2-5.2-2.8-5-5.7l0.6-8.3c0.1-2,1.8-3.4,3.8-3.3l3.6,0.3
			c2,0.1,3.4,1.8,3.3,3.8l-0.6,8.3C44.5,263.1,42,265.3,39,265.1z"/>
	</g>
</g>

</svg>
